# File created by Blade
# Date/Time:  Mon Sep 22 17:23:16 2014
# Frame Rate: 120.000 fps
#------------------------------------------------------
:FULLY-SPECIFIED
:DEGREES
1083
root 4.443296 37.419650 -0.704802 -18.353852 8.547837 -4.977837
RightUpLeg -63.393515 -1.985841 -1.648911
RightLeg 136.013758 -0.000000 -0.000000
RightFoot 14.679123 -12.197923 13.796071
RightToeBase 5.733997 -0.000000 -0.000000
LeftUpLeg 17.622224 -1.797489 -3.428809
LeftLeg 12.009736 -0.000000 -0.000000
LeftFoot -15.579507 13.050580 -13.182884
LeftToeBase 2.784924 -0.000000 -0.000000
Spine 17.783381 -9.259668 -4.456121
RightShoulder 2.126256 -26.995856 -6.228495
RightArm 21.196913 -24.748538 61.503338
RightForeArm -174.349450 -0.000000 52.553544
RightHand 98.792772 0.000000 -168.005109
RightHandThumb1 -24.326973 -0.000000 -32.862282
LeftShoulder -13.597284 27.563879 7.194361
LeftArm 80.494272 -9.336973 -54.726084
LeftForeArm 49.733227 -0.000000 60.354369
LeftHand -24.271710 0.000000 -6.549701
LeftHandThumb1 -26.253704 0.000000 33.147579
Head 8.657631 3.240269 9.545821
1084
root 4.446734 37.412834 -0.690403 -18.501344 8.753590 -4.900750
RightUpLeg -63.565123 -2.265844 -1.738444
RightLeg 135.323308 -0.000000 -0.000000
RightFoot 14.565369 -12.361052 13.844419
RightToeBase 5.872886 -0.000000 -0.000000
LeftUpLeg 17.768728 -1.820904 -3.515079
LeftLeg 12.056059 -0.000000 -0.000000
LeftFoot -15.572758 12.909233 -13.122218
LeftToeBase 2.823179 -0.000000 -0.000000
Spine 17.992626 -9.300303 -4.740521
RightShoulder 2.005227 -27.146097 -6.164823
RightArm 21.130897 -24.689680 61.618844
RightForeArm -174.552136 -0.000000 52.828847
RightHand 98.786785 -0.000000 -167.879582
RightHandThumb1 -24.326973 -0.000000 -32.862282
LeftShoulder -13.545845 27.593863 7.342741
LeftArm 80.552767 -9.327876 -54.696725
LeftForeArm 49.852484 0.000000 60.493579
LeftHand -24.212521 0.000000 -6.475431
LeftHandThumb1 -26.253704 0.000000 33.147579
Head 8.530971 3.167722 9.725583
1085
root 4.461527 37.406554 -0.678962 -18.673782 8.995040 -4.721190
RightUpLeg -63.755241 -2.581891 -2.042635
RightLeg 134.451553 -0.000000 -0.000000
RightFoot 14.826288 -12.400414 13.462940
RightToeBase 5.789447 -0.000000 -0.000000
LeftUpLeg 18.064561 -2.169120 -3.877634
LeftLeg 11.881933 -0.000000 -0.000000
LeftFoot -15.530171 13.149788 -13.189090
LeftToeBase 2.903046 -0.000000 -0.000000
Spine 18.290473 -9.378144 -5.171222
RightShoulder 1.931261 -27.176925 -6.104456
RightArm 21.051816 -24.693862 61.754009
RightForeArm -174.425414 0.000000 52.992904
RightHand 98.769544 0.000000 -167.595402
RightHandThumb1 -24.326973 -0.000000 -32.862282
LeftShoulder -13.565537 27.616689 7.446495
LeftArm 80.636106 -9.362954 -54.596028
LeftForeArm 49.806856 -0.000000 60.648661
LeftHand -24.381936 -0.000000 -6.453567
LeftHandThumb1 -26.253704 0.000000 33.147579
Head 8.361998 3.121308 9.962639
1086
root 4.475385 37.401568 -0.667182 -18.900793 9.262441 -4.616417
RightUpLeg -63.918955 -2.935654 -2.347252
RightLeg 133.339804 -0.000000 -0.000000
RightFoot 15.185390 -12.384319 13.299132
RightToeBase 5.428995 -0.000000 -0.000000
LeftUpLeg 18.303756 -2.143102 -3.997372
LeftLeg 11.891142 -0.000000 -0.000000
LeftFoot -15.466669 12.985304 -13.112086
LeftToeBase 2.937878 -0.000000 -0.000000
Spine 18.661764 -9.518338 -5.535316
RightShoulder 1.891846 -27.218164 -6.078377
RightArm 20.974121 -24.661652 61.872686
RightForeArm -174.392577 -0.000000 53.185716
RightHand 98.859866 -0.000000 -167.870872
RightHandThumb1 -24.326973 -0.000000 -32.862282
LeftShoulder -13.553773 27.552820 7.589856
LeftArm 80.631951 -9.363246 -54.577264
LeftForeArm 49.978847 -0.000000 60.816946
LeftHand -24.407356 -0.000000 -6.575245
LeftHandThumb1 -26.253704 0.000000 33.147579
Head 8.171545 3.071324 10.168919
1087
root 4.489996 37.399582 -0.655645 -19.190250 9.571718 -4.547310
RightUpLeg -64.028416 -3.367253 -2.703482
RightLeg 131.970246 -0.000000 -0.000000
RightFoot 15.489854 -12.502207 13.703240
RightToeBase 5.887425 -0.000000 -0.000000
LeftUpLeg 18.609178 -2.120780 -4.076323
LeftLeg 11.881139 -0.000000 -0.000000
LeftFoot -15.395769 12.741668 -13.041186
LeftToeBase 3.069374 -0.000000 -0.000000
Spine 19.142646 -9.751440 -5.902214
RightShoulder 1.894122 -27.262276 -6.062597
RightArm 20.986226 -24.640305 61.921256
RightForeArm -174.511718 -0.000000 53.322738
RightHand 98.871272 0.000000 -167.803853
RightHandThumb1 -24.326973 -0.000000 -32.862282
LeftShoulder -13.644373 27.545152 7.635021
LeftArm 80.724362 -9.424648 -54.508911
LeftForeArm 50.056737 0.000000 60.979986
LeftHand -24.372809 -0.000000 -6.515674
LeftHandThumb1 -26.253704 0.000000 33.147579
Head 7.947484 3.100516 10.372801
1088
root 4.503990 37.402021 -0.645819 -19.538161 9.886753 -4.501460
RightUpLeg -64.069474 -3.794718 -3.071289
RightLeg 130.284746 -0.000000 -0.000000
RightFoot 16.180592 -12.786663 13.697482
RightToeBase 5.781522 -0.000000 -0.000000
LeftUpLeg 19.002740 -2.170334 -4.163776
LeftLeg 11.796218 -0.000000 -0.000000
LeftFoot -15.281150 12.566789 -12.996480
LeftToeBase 3.131151 -0.000000 -0.000000
Spine 19.712505 -9.987722 -6.271319
RightShoulder 1.940791 -27.270186 -6.026169
RightArm 21.000758 -24.587964 61.944789
RightForeArm -174.387734 -0.000000 53.400744
RightHand 98.791907 0.000000 -168.020043
RightHandThumb1 -24.326973 -0.000000 -32.862282
LeftShoulder -13.684679 27.469441 7.739324
LeftArm 80.750343 -9.466246 -54.507326
LeftForeArm 50.151457 -0.000000 61.146940
LeftHand -24.426005 -0.000000 -6.546052
LeftHandThumb1 -26.253704 0.000000 33.147579
Head 7.699157 3.109145 10.579334
